<svg xmlns="http://www.w3.org/2000/svg" enable-background="new 0 0 64 64" viewBox="0 0 64 64" id="muslim">
    <path fill="#0d6efd" d="M49.5878792 27.3494282c.4800758-.0900288.9400711-.2999916 1.3301163-.6300106.6200409-.5200253 1.0000763-1.2400036 1.0700874-2.0500088.070015-.7999973-.1699944-1.5800343-.6800423-2.2000351-.4900284-.5999813-1.1700706-.9500217-1.880146-1.0499992.2899971-.1199951.5800591-.2800312.8300781-.489994.6200409-.5200253 1.0000763-1.2400646 1.0700874-2.0500698.0699539-.7999973-.1700554-1.5799732-.6801033-2.1999741-.9700432-1.1800051-2.6501656-1.4100494-3.9102669-.6000423.1800041-.3399706.2899971-.7199793.33004-1.1200075.070015-.7999964-.1700554-1.589982-.6800423-2.2099838-.9600945-1.1600456-2.6201935-1.4000387-3.8603363-.6200619.2400665-.3999681.4000549-.8399744.4500465-1.3199596.0700111-.8000574-.1699982-1.5800333-.6800461-2.2000351-1.0600777-1.2800426-2.9402237-1.4600368-4.2103386-.4000282-.1399651.1199961-.2500191.2399921-.3600121.3699989.0200195-.1099873.0499916-.2199736.0600014-.3399696.070015-.8000569-.1699944-1.5800333-.6800423-2.2000346-1.0500679-1.2800426-2.9402237-1.4600372-4.2103386-.4000287-.3399925.2900419-.6100311.6600409-.7900391 1.0600085-.0600014-.589972-.289999-1.1499753-.6700325-1.610002-1.0600777-1.2799811-2.9502335-1.4600368-4.2103386-.3900185-.6200428.510015-1.0000763 1.2400031-1.0700874 2.04006-.0100117.0999765 0 .1900043 0 .2799711-.0899734-.1599751-.1900177-.3100009-.3100224-.4599657-1.050066-1.2800422-2.9402218-1.450027-4.2102776-.3900185-.6100922.5199637-.9901257 1.2400026-1.0600758 2.0500088-.0400429.409977.0099487.8100052.1299534 1.2000246-1.0900478-1.0100203-2.7701664-1.1000481-3.9302883-.119997-.6200428.5199642-1.0000753 1.2400036-1.0700884 2.0500088-.0699511.7999964.1700573 1.5800333.6801043 2.2000351.0299721.039978.069952.0700083.1099949.1099863-.0200214-.0100098-.0400429-.0200195-.0499916-.0200195-1.5801363-.489995-3.2502451.410038-3.7403326 2.00002-.2400084.7800369-.1599855 1.6000538.2100372 2.3100224.3500633.6700497.9200525 1.1600456 1.6201172 1.4100475-.5199976.079958-1.0200357.2899818-1.4600706.649971-.6100922.5200233-.9901257 1.2400627-1.0600777 2.0500698-.0800228.7999954.1599855 1.5799713.6700335 2.1999722.5900106.7200394 1.4501209 1.0900383 2.3101711 1.0900383.3200312 0 .6400633-.0599976.9500837-.1600361-.4400358.4800472-.7200861 1.0900383-.7800875 1.7500191-.070013.8000565.1699953 1.5800323.6800432 2.2000351.5900707.7200375 1.4401112 1.0900364 2.3001614 1.0900364.5400791 0 1.0800972-.1500244 1.5701256-.450016-.1900177.3499794-.3200321.7399979-.3600121 1.1599846-.070013.8000565.1699944 1.5900421.6800423 2.2100449.5900726.7100296 1.4501228 1.0800285 2.3001614 1.0800285.6801052 0 1.3501377-.2200356 1.9101772-.6900101.2099781-.1699829.3800335-.3800087.5300083-.6000443 0 .0200233-.0099487.0300331-.0099487.0500526-.070013.7999954.1699963 1.5799713.6800442 2.1999702.5900097.7200394 1.4401093 1.0900383 2.3001595 1.0900383.650013 0 1.3100967-.2199707 1.8601265-.659977-.1400261.3099976-.2400093.6300087-.2700405.9699783-.069952.8100052.1700573 1.5900459.6801052 2.2100449.5900097.7199783 1.4400501 1.0899773 2.3001595 1.0899773.4400368 0 .87006-.1099854 1.2800674-.2999916-.320034.4299965-.5200005.9400139-.5700531 1.4900055-.0700111.7999954.1700592 1.5800362.6800461 2.2100449.5900688.7100296 1.4401093 1.0800285 2.3002205 1.0800285.6700325 0 1.3500786-.2200317 1.9101181-.6900101.6100311-.5200233.9900627-1.2400627 1.0700874-2.0500679.0200195-.2599525 0-.5099564-.0399818-.7599564.0099487.0199585.0199585.039978.0299721.0499878.5900688.7199783 1.450119 1.0899773 2.3101692 1.0899773.6700325 0 1.3501396-.2299843 1.9001694-.6900101.6200409-.5199623 1.0000725-1.2400017 1.0700874-2.0500107.0499916-.5600014-.0600014-1.1099968-.3000717-1.5999908.5100479.3599892 1.1101303.5499954 1.7201614.5499954.6700325 0 1.3500748-.2199745 1.9101143-.6900101.6100922-.5200272.9901276-1.2400055 1.0600777-2.0400009.0800247-.8100052-.1599846-1.5900421-.6700325-2.2100449-.0700111-.0800171-.1400261-.1400146-.2099762-.210022.2900009.0900269.5900116.1600342.8900185.1600342.6700974 0 1.3501396-.2299805 1.9101791-.7000198.6100311-.5100136.9900665-1.2400017 1.0600777-2.0500069.0799637-.7999973-.1600456-1.5800343-.6700935-2.2000351C50.5780029 27.8294144 50.1079369 27.519413 49.5878792 27.3494282zM46.7476997 27.8894119c-.6200409.5100155-1.0000763 1.2400017-1.0700874 2.04006-.0800247.7999954.1699944 1.5899811.6800423 2.2099819.0499916.0700111.1300163.1199989.1900177.1799965-.9300613-.2799721-1.9801292-.1099854-2.7801781.5600014-.6201019.5200272-1.0000763 1.2500153-1.0700874 2.0500717-.0500526.5600014.0600014 1.1099968.3000107 1.6100006-1.0800972-.7700272-2.5601921-.7600174-3.6302795.1300049-.6100311.5199661-.9900627 1.2400055-1.0600777 2.0500107-.0300293.2600136-.0100098.5100136.0299721.7600174-.0099487-.0200195-.0199585-.0400391-.0299721-.0499878-.8900795-1.0900383-2.3801842-1.3700104-3.5802841-.7900467.3100204-.4400063.5200577-.9400139.5700493-1.4900055.0700111-.8100052-.1699944-1.5899849-.6800423-2.2100449-1.0400581-1.259964-2.890234-1.4399567-4.1603489-.4299965.1400261-.2999916.2400703-.6300125.2700405-.9699821.070013-.7999954-.1699963-1.5800323-.6800442-2.2000351-1.050066-1.2799816-2.9402237-1.4600353-4.2103386-.4000282-.2099762.1800556-.3800335.3800087-.5300083.6000423 0-.0200195.0100117-.0300293.0100117-.0499878.0700111-.8000565-.1700573-1.5800323-.6800442-2.2000351-.9600945-1.1800041-2.6302032-1.4100475-3.8702869-.6200008.1899567-.3599892.3199711-.7600174.3600121-1.1800041.070013-.8000584-.1700554-1.5800343-.6800423-2.2000351-.8100586-.9899998-2.1201553-1.3100109-3.2602558-.9300022.4400349-.4800472.7200241-1.0800285.7800274-1.7500172.0700111-.7999973-.1699963-1.590044-.6800442-2.2100449-.3399925-.4199886-.7900372-.7100296-1.2700539-.8900242 1.0900478-.1799946 2.0501423-.9599705 2.3901329-2.0999966.2400093-.7700272.1700573-1.590044-.2099762-2.3000116-.1200047-.2399931-.2800503-.450017-.4600563-.6400213.3100204.0999765.6300507.1699848.9500828.1699848.6700344 0 1.3500767-.2299833 1.9101162-.6900101.6100311-.5199633.9900646-1.2500124 1.0700893-2.0500088.0300312-.4199867-.0200214-.8300257-.1400261-1.2100344.5600395.530035 1.2901363.8200159 2.0301819.8200159.6700344 0 1.3500767-.2299824 1.9001064-.6900091.6201038-.5199642 1.0000763-1.2500134 1.0700874-2.0500088.0100117-.0999765 0-.1900043 0-.2799711.0900345.1599741.1900177.3100004.3100224.4599657.5900707.7200384 1.4401093 1.0900373 2.3002205 1.0900373.6700344 0 1.3500767-.2299824 1.9101181-.7000189.3400517-.2899809.6000195-.6500311.7900372-1.0499983.0600014.5800228.290062 1.1400261.6700935 1.6100016.5900116.7100286 1.4500618 1.0800276 2.3001595 1.0800276.6800461 0 1.3600883-.2200336 1.9101181-.6900091.1400261-.1099863.2500191-.2399931.3700218-.3699989-.0299683.1099863-.0600014.2199726-.0699501.3399696-.0700111.8000565.1699944 1.5800333.6800423 2.2100439.5900116.7100296 1.4401131 1.0800285 2.3001633 1.0800285.5400162 0 1.0800972-.1500263 1.5601158-.450017-.2400093.4000282-.4000549.8300257-.4500465 1.3100109-.070015.7999964.1699944 1.5800333.6800423 2.2000341.5900726.7199783 1.4401093 1.0899773 2.3001595 1.0899773.5600395 0 1.120079-.1599751 1.6101685-.4799843-.1800041.3400288-.290062.7100277-.3200302 1.1099968-.0800247.7999954.1599846 1.5900421.6700325 2.210043.5100479.5999832 1.2001038.9500237 1.9201279 1.0399895-.3100204.119997-.6000214.2700214-.87006.489996-.6100311.5200233-.9900665 1.2500114-1.0600777 2.0500698-.0800247.7999954.1600456 1.5799713.6700325 2.2099819.3800354.4600277.870121.7600193 1.4001312.9200535C47.6277695 27.3494282 47.1476936 27.5494423 46.7476997 27.8894119zM38.0820694 48.5651512c0-.1321106-.0917473-.2392044-.2048569-.2392044h-.8511276v-2.3967667h-2.040966v2.3967667h-.8509407c-.1131096 0-.2047958.1070938-.2047958.2392044v3.830719h4.1526871V48.5651512zM32.9473915 59.7195396C32.9254074 59.8659286 33.0218849 60 33.1491356 60h5.7131805c.1272507 0 .2236671-.1340714.201683-.2804604l-.8655167-5.7709389h-4.3855743L32.9473915 59.7195396z"></path>
</svg>